<?xml version="1.0" encoding="utf-8"?>
<!-- Generator: Adobe Illustrator 23.0.1, SVG Export Plug-In . SVG Version: 6.00 Build 0)  -->
<svg version="1.1" id="Capa_1" xmlns="http://www.w3.org/2000/svg" xmlns:xlink="http://www.w3.org/1999/xlink" x="0px" y="0px"
	 viewBox="0 0 480 480" style="enable-background:new 0 0 480 480;" xml:space="preserve">
<g>
	<g>
		<path d="M293.9,349.2l128-128c25-24.9,25-65.6,0-90.5c-12.1-12.1-28.2-18.8-45.2-18.8c-17.1,0-33.2,6.7-45.2,18.8l-82.8,82.8
			l-82.8-82.8c-12.1-12.1-28.2-18.8-45.2-18.8c-17.1,0-33.2,6.7-45.2,18.8c-12.1,12.1-18.8,28.2-18.8,45.2
			c0,17.1,6.7,33.2,18.8,45.2l128,128c12.1,12.1,28.2,18.8,45.2,18.8C265.7,368,281.8,361.3,293.9,349.2z M226,326.6l-128-128
			c-12.1-12.1-12.1-33.1,0-45.2c12.5-12.5,32.8-12.5,45.2,0l105.4,105.4L354,153.4c6-6,14.1-9.4,22.6-9.4s16.6,3.3,22.6,9.4
			c6.2,6.2,9.4,14.4,9.4,22.6s-3.1,16.4-9.3,22.6l-128,128c-6.1,6-14.1,9.4-22.7,9.4C240.1,336,232,332.7,226,326.6z"/>
	</g>
</g>
</svg>
