<?xml version="1.0" encoding="UTF-8"?>
<svg xmlns="http://www.w3.org/2000/svg" id="Layer_1" data-name="Layer 1" viewBox="0 0 150 150" width="512" height="512"><path d="M115.28,89.666H67.04a3.741,3.741,0,0,1-3.6-3.86v-7.92a1,1,0,0,1,2,0v7.92a1.747,1.747,0,0,0,1.6,1.86h48.24a1.747,1.747,0,0,0,1.6-1.86V70.3a2.86,2.86,0,0,0-2.66-3.02H85.4a1,1,0,0,1,0-2h28.82a4.856,4.856,0,0,1,4.66,5.02v15.51A3.741,3.741,0,0,1,115.28,89.666Z"/><path d="M60.777,134.434H14.663A4.857,4.857,0,0,1,10,129.413V115.069a4.858,4.858,0,0,1,4.663-5.021H61.842a3.737,3.737,0,0,1,3.6,3.853v15.512A4.857,4.857,0,0,1,60.777,134.434ZM14.663,112.048A2.862,2.862,0,0,0,12,115.069v14.344a2.862,2.862,0,0,0,2.663,3.021H60.777a2.863,2.863,0,0,0,2.664-3.021V113.9a1.742,1.742,0,0,0-1.6-1.853Z"/><path d="M114.219,134.434H68.1a4.857,4.857,0,0,1-4.663-5.021V113.9a3.737,3.737,0,0,1,3.6-3.853h48.243a3.736,3.736,0,0,1,3.6,3.853v15.512A4.857,4.857,0,0,1,114.219,134.434ZM67.04,112.048a1.742,1.742,0,0,0-1.6,1.853v15.512a2.863,2.863,0,0,0,2.663,3.021h46.115a2.863,2.863,0,0,0,2.663-3.021V113.9a1.742,1.742,0,0,0-1.6-1.853Z"/><path d="M135.067,134.434H121.814a5.141,5.141,0,0,1-4.932-5.317V114.2a4.02,4.02,0,0,1,3.869-4.148h14.316A5.141,5.141,0,0,1,140,115.364v13.753A5.142,5.142,0,0,1,135.067,134.434Zm-14.316-22.386a2.026,2.026,0,0,0-1.869,2.148v14.921a3.146,3.146,0,0,0,2.932,3.317h13.253A3.146,3.146,0,0,0,138,129.117V115.364a3.145,3.145,0,0,0-2.933-3.316Z"/><path d="M88.158,112.048a3.738,3.738,0,0,1-3.6-3.854V91.515a3.737,3.737,0,0,1,3.6-3.853,1,1,0,0,1,0,2,1.742,1.742,0,0,0-1.6,1.853v16.679a1.742,1.742,0,0,0,1.6,1.854,1,1,0,1,1,0,2Z"/><path d="M135.337,112.048a1,1,0,0,1,0-2A2.863,2.863,0,0,0,138,107.026V92.683a2.862,2.862,0,0,0-2.663-3.021H115.283a1,1,0,1,1,0-2h20.054A4.857,4.857,0,0,1,140,92.683v14.343A4.858,4.858,0,0,1,135.337,112.048Z"/><path d="M82.96,112.048a1,1,0,1,1,0-2,1.742,1.742,0,0,0,1.6-1.854V91.515a1.742,1.742,0,0,0-1.6-1.853,1,1,0,0,1,0-2,3.737,3.737,0,0,1,3.6,3.853v16.679A3.738,3.738,0,0,1,82.96,112.048Z"/><path d="M34.717,112.048a3.737,3.737,0,0,1-3.6-3.854V91.515a3.737,3.737,0,0,1,3.6-3.853H67.04a1,1,0,0,1,0,2H34.717a1.742,1.742,0,0,0-1.6,1.853v16.679a1.742,1.742,0,0,0,1.6,1.854,1,1,0,0,1,0,2Z"/><path d="M46.419,83.333c-5.666,0-7.666-2.027-7.815-2.187-.247-.226-7.092-7.037,5.461-32.66,6.055-12.356,9.876-17.2,14.1-17.884,4.825-.772,9.488,4,17.229,11.9l.992,1.012a.9.9,0,0,1,.121.15l.337.322c8.319,7.972,13.341,12.784,12.582,17.663-.665,4.276-5.387,7.99-18.044,14.192C59.343,81.739,51.44,83.333,46.419,83.333ZM59.182,32.521a4.387,4.387,0,0,0-.7.055c-3.435.554-6.974,5.261-12.623,16.791-11.718,23.916-5.905,30.31-5.843,30.367.1.1,6.5,6.061,30.484-5.69,11.664-5.715,16.416-9.275,16.948-12.7.6-3.851-4.139-8.391-11.989-15.912l-.5-.478a1,1,0,0,1-.159-.2l-.837-.855C67.119,36.91,62.82,32.521,59.182,32.521Z"/><path d="M77.695,47.187a1,1,0,0,1-.707-1.708l2.754-2.752-2.58-2.581L74.4,42.9a1,1,0,0,1-1.414-1.414l3.465-3.464a1,1,0,0,1,1.414,0l3.994,4a1,1,0,0,1,0,1.414L78.4,46.894A1,1,0,0,1,77.695,47.187Z"/><path d="M83.362,44.89a3.528,3.528,0,0,1-2.5-1.039L75.6,38.585a3.458,3.458,0,0,1-.059-4.885L92.693,16.549a3.458,3.458,0,0,1,4.885.058l5.265,5.266a3.458,3.458,0,0,1,.059,4.884L85.75,43.909A3.362,3.362,0,0,1,83.362,44.89Zm11.72-27.324a1.364,1.364,0,0,0-.975.4L76.956,35.114a1.361,1.361,0,0,0-.4,1,1.524,1.524,0,0,0,.455,1.058l5.265,5.266a1.458,1.458,0,0,0,2.056.058l17.152-17.152a1.458,1.458,0,0,0-.059-2.056l-5.265-5.266a1.529,1.529,0,0,0-1.058-.455Z"/><path d="M94.7,34.541A1,1,0,0,1,94,34.248L85.2,25.454a1,1,0,1,1,1.414-1.414l8.794,8.794a1,1,0,0,1-.707,1.707Z"/><path d="M98.885,30.36a.993.993,0,0,1-.707-.293l-8.8-8.794A1,1,0,0,1,90.8,19.859l8.8,8.794a1,1,0,0,1-.707,1.707Z"/><path d="M115.28,89.666H67.04a3.741,3.741,0,0,1-3.6-3.86v-7.92a1,1,0,0,1,2,0v7.92a1.747,1.747,0,0,0,1.6,1.86h48.24a1.747,1.747,0,0,0,1.6-1.86V70.3a2.86,2.86,0,0,0-2.66-3.02H85.4a1,1,0,0,1,0-2h28.82a4.856,4.856,0,0,1,4.66,5.02v15.51A3.741,3.741,0,0,1,115.28,89.666Z"/><path d="M60.777,134.434H14.663A4.857,4.857,0,0,1,10,129.413V115.069a4.858,4.858,0,0,1,4.663-5.021H61.842a3.737,3.737,0,0,1,3.6,3.853v15.512A4.857,4.857,0,0,1,60.777,134.434ZM14.663,112.048A2.862,2.862,0,0,0,12,115.069v14.344a2.862,2.862,0,0,0,2.663,3.021H60.777a2.863,2.863,0,0,0,2.664-3.021V113.9a1.742,1.742,0,0,0-1.6-1.853Z"/><path d="M114.219,134.434H68.1a4.857,4.857,0,0,1-4.663-5.021V113.9a3.737,3.737,0,0,1,3.6-3.853h48.243a3.736,3.736,0,0,1,3.6,3.853v15.512A4.857,4.857,0,0,1,114.219,134.434ZM67.04,112.048a1.742,1.742,0,0,0-1.6,1.853v15.512a2.863,2.863,0,0,0,2.663,3.021h46.115a2.863,2.863,0,0,0,2.663-3.021V113.9a1.742,1.742,0,0,0-1.6-1.853Z"/><path d="M135.067,134.434H121.814a5.141,5.141,0,0,1-4.932-5.317V114.2a4.02,4.02,0,0,1,3.869-4.148h14.316A5.141,5.141,0,0,1,140,115.364v13.753A5.142,5.142,0,0,1,135.067,134.434Zm-14.316-22.386a2.026,2.026,0,0,0-1.869,2.148v14.921a3.146,3.146,0,0,0,2.932,3.317h13.253A3.146,3.146,0,0,0,138,129.117V115.364a3.145,3.145,0,0,0-2.933-3.316Z"/><path d="M88.158,112.048a3.738,3.738,0,0,1-3.6-3.854V91.515a3.737,3.737,0,0,1,3.6-3.853,1,1,0,0,1,0,2,1.742,1.742,0,0,0-1.6,1.853v16.679a1.742,1.742,0,0,0,1.6,1.854,1,1,0,1,1,0,2Z"/><path d="M135.337,112.048a1,1,0,0,1,0-2A2.863,2.863,0,0,0,138,107.026V92.683a2.862,2.862,0,0,0-2.663-3.021H115.283a1,1,0,1,1,0-2h20.054A4.857,4.857,0,0,1,140,92.683v14.343A4.858,4.858,0,0,1,135.337,112.048Z"/><path d="M82.96,112.048a1,1,0,1,1,0-2,1.742,1.742,0,0,0,1.6-1.854V91.515a1.742,1.742,0,0,0-1.6-1.853,1,1,0,0,1,0-2,3.737,3.737,0,0,1,3.6,3.853v16.679A3.738,3.738,0,0,1,82.96,112.048Z"/><path d="M34.717,112.048a3.737,3.737,0,0,1-3.6-3.854V91.515a3.737,3.737,0,0,1,3.6-3.853H67.04a1,1,0,0,1,0,2H34.717a1.742,1.742,0,0,0-1.6,1.853v16.679a1.742,1.742,0,0,0,1.6,1.854,1,1,0,0,1,0,2Z"/><path d="M46.419,83.333c-5.666,0-7.666-2.027-7.815-2.187-.247-.226-7.092-7.037,5.461-32.66,6.055-12.356,9.876-17.2,14.1-17.884,4.825-.772,9.488,4,17.229,11.9l.992,1.012a.9.9,0,0,1,.121.15l.337.322c8.319,7.972,13.341,12.784,12.582,17.663-.665,4.276-5.387,7.99-18.044,14.192C59.343,81.739,51.44,83.333,46.419,83.333ZM59.182,32.521a4.387,4.387,0,0,0-.7.055c-3.435.554-6.974,5.261-12.623,16.791-11.718,23.916-5.905,30.31-5.843,30.367.1.1,6.5,6.061,30.484-5.69,11.664-5.715,16.416-9.275,16.948-12.7.6-3.851-4.139-8.391-11.989-15.912l-.5-.478a1,1,0,0,1-.159-.2l-.837-.855C67.119,36.91,62.82,32.521,59.182,32.521Z"/><path d="M77.695,47.187a1,1,0,0,1-.707-1.708l2.754-2.752-2.58-2.581L74.4,42.9a1,1,0,0,1-1.414-1.414l3.465-3.464a1,1,0,0,1,1.414,0l3.994,4a1,1,0,0,1,0,1.414L78.4,46.894A1,1,0,0,1,77.695,47.187Z"/><path d="M83.362,44.89a3.528,3.528,0,0,1-2.5-1.039L75.6,38.585a3.458,3.458,0,0,1-.059-4.885L92.693,16.549a3.458,3.458,0,0,1,4.885.058l5.265,5.266a3.458,3.458,0,0,1,.059,4.884L85.75,43.909A3.362,3.362,0,0,1,83.362,44.89Zm11.72-27.324a1.364,1.364,0,0,0-.975.4L76.956,35.114a1.361,1.361,0,0,0-.4,1,1.524,1.524,0,0,0,.455,1.058l5.265,5.266a1.458,1.458,0,0,0,2.056.058l17.152-17.152a1.458,1.458,0,0,0-.059-2.056l-5.265-5.266a1.529,1.529,0,0,0-1.058-.455Z"/><path d="M94.7,34.541A1,1,0,0,1,94,34.248L85.2,25.454a1,1,0,1,1,1.414-1.414l8.794,8.794a1,1,0,0,1-.707,1.707Z"/><path d="M98.885,30.36a.993.993,0,0,1-.707-.293l-8.8-8.794A1,1,0,0,1,90.8,19.859l8.8,8.794a1,1,0,0,1-.707,1.707Z"/></svg>
