<?xml version="1.0" encoding="utf-8"?>
<!-- Generator: Adobe Illustrator 23.0.1, SVG Export Plug-In . SVG Version: 6.00 Build 0)  -->
<svg version="1.1" id="Capa_1" xmlns="http://www.w3.org/2000/svg" xmlns:xlink="http://www.w3.org/1999/xlink" x="0px" y="0px"
	 viewBox="0 0 55.1 55.1" style="enable-background:new 0 0 55.1 55.1;" xml:space="preserve">
<style type="text/css">
	.st0{stroke:#000000;stroke-width:2.3;stroke-miterlimit:10;}
</style>
<g>
	<g>
		<path class="st0" d="M18.2,29.2c-2.8,0-5,2.7-5,6s2.2,6,5,6s5-2.7,5-6S21,29.2,18.2,29.2z M18.2,39.2c-1.7,0-3-1.8-3-4s1.3-4,3-4
			s3,1.8,3,4S19.9,39.2,18.2,39.2z"/>
		<path class="st0" d="M37.2,28.9c-2.8,0-5,2.7-5,6s2.2,6,5,6s5-2.7,5-6S40,28.9,37.2,28.9z M37.2,38.9c-1.7,0-3-1.8-3-4s1.3-4,3-4
			s3,1.8,3,4S38.9,38.9,37.2,38.9z"/>
		<path class="st0" d="M38.9,24L38.9,24c-1,0-2,0.1-2.9,0.1c-0.8,0-1.7,0.1-2.5,0.1H32c-2.5,0.1-5.2,0.1-7.8,0.1
			c-1.2,0-2.3,0-3.5-0.1c-1.6-0.1-3.2-0.1-4.9-0.1c-2.3,0.1-4.2,0.8-5.7,2.2l0,0c-2.5,2.3-3.5,5.3-3.1,9.3c0.5,5.7,2.9,8.7,8,10.1
			c4.3,1.2,8.7,1.3,12.3,1.3h1.2c0.4,0,0.8,0,1.2,0c0.5,0,1,0,1.5,0c3.6-0.1,6.7-0.7,9.6-1.6c3.2-1.1,5.3-3.2,6.3-6.2
			c0.8-2.3,1-4.5,0.7-6.7C47.4,29,44.3,24,38.9,24z M45.3,38.6c-0.8,2.4-2.4,4-5,4.9c-2.7,0.9-5.7,1.4-9,1.5c-0.9,0-1.8,0-2.7,0
			h-1.2c-3.5,0-7.7-0.1-11.8-1.2c-4.3-1.2-6.1-3.5-6.6-8.4c-0.3-3.3,0.5-5.8,2.5-7.6c1.1-1,2.6-1.6,4.4-1.6c1.6,0,3.2,0,4.8,0.1
			c1.2,0,2.4,0.1,3.6,0.1c2.6,0,5.2,0,7.8-0.1h1.5c0.9,0,1.7-0.1,2.6-0.1c0.9,0,1.8-0.1,2.7-0.1H39c4.1,0,6.6,4,7,6.8
			C46.2,34.7,46,36.6,45.3,38.6z"/>
		<path class="st0" d="M51.9,18.6c-0.6-0.8-0.9-1.3-0.8-2.2c0.2-1.8-0.1-3.7-0.3-5.5v-0.1c-0.3-2.4-1-4.7-1.9-6.8l-0.3-0.8l-1.5,0.3
			c-2.1,0.4-4.2,0.9-6.1,2c-1.3,0.7-2.6,1.5-3.8,2.3c-0.8,0.5-1.7,1-2.5,1.5c0,0-0.1,0-0.2,0l0,0c-4.5-0.8-9.1-0.8-13.8,0
			c-0.1,0-0.2,0-0.4-0.1c-0.5-0.3-1-0.6-1.5-1c-0.6-0.4-1.2-0.8-1.8-1.1c-2.9-1.7-6-3.3-9.8-3.8l-0.6,0L6.2,4.1C6.1,4.3,6,4.4,6,4.6
			c-1.1,2.9-1.7,5.9-1.9,9.1c-0.1,1.1-0.1,2.2,0,3.4c0.1,0.4,0,0.5-0.1,0.6c-1.4,1.6-2.4,3.4-3,5.3c-1.1,3.2-1.3,6.8-0.6,11.3
			c0.5,3.7,1.5,6.5,3,8.9c3.2,5,8.1,7.8,14.7,8.4c3.3,0.3,6.6,0.3,9.8,0.3c0.7,0,1.4,0,2.1,0c0.9,0,1.8,0,2.7,0
			c4.2,0,7.5-0.5,10.5-1.7c5.4-2.1,9-6,10.7-11.7c0.9-3.1,1.4-6.5,1.2-9.9C55,24.7,53.9,21.3,51.9,18.6z M51.9,37.9
			c-1.5,5.1-4.6,8.5-9.5,10.4c-2.8,1.1-5.9,1.6-9.8,1.6c-0.9,0-1.8,0-2.7,0c-3.9,0-7.9,0-11.7-0.3c-6-0.5-10.3-3-13.1-7.5
			C3.7,40,2.9,37.5,2.4,34c-0.6-4.2-0.5-7.4,0.5-10.4c0.6-1.7,1.4-3.3,2.6-4.7C6,18.2,6.2,17.6,6,16.7c-0.1-0.9-0.1-2,0-3.1
			C6.2,10.8,6.8,8,7.7,5.4c3.1,0.6,5.8,2,8.3,3.5c0.6,0.3,1.1,0.7,1.7,1.1c0.5,0.3,1.1,0.7,1.6,1s1.2,0.5,1.7,0.4
			c4.5-0.7,8.9-0.7,13.1,0c0.5,0.1,1.1,0,1.5-0.3c0.8-0.5,1.7-1,2.5-1.5C39.5,8.7,40.7,8,42,7.2c1.6-0.9,3.4-1.3,5.4-1.7
			c0.7,1.7,1.1,3.6,1.4,5.5v0.1c0.2,1.7,0.5,3.4,0.3,5s0.5,2.6,1.2,3.5c1.8,2.5,2.7,5.4,2.8,8.9C53.2,31.8,52.8,35,51.9,37.9z"/>
	</g>
</g>
</svg>
