<?xml version="1.0" encoding="utf-8"?>
<!-- Generator: Adobe Illustrator 23.0.1, SVG Export Plug-In . SVG Version: 6.00 Build 0)  -->
<svg version="1.1" id="Capa_1" xmlns="http://www.w3.org/2000/svg" xmlns:xlink="http://www.w3.org/1999/xlink" x="0px" y="0px"
	 viewBox="0 0 55.1 55.1" style="enable-background:new 0 0 55.1 55.1;" xml:space="preserve">
<style type="text/css">
	.st0{stroke:#000000;stroke-miterlimit:10;}
</style>
<g>
	<g>
		<path class="st0" d="M18.5,29.9c-2.8,0-5,2.7-5,6s2.2,6,5,6s5-2.7,5-6S21.3,29.9,18.5,29.9z M18.5,39.9c-1.7,0-3-1.8-3-4
			s1.3-4,3-4s3,1.8,3,4S20.2,39.9,18.5,39.9z"/>
		<path class="st0" d="M37.5,29.9c-2.8,0-5,2.7-5,6s2.2,6,5,6s5-2.7,5-6S40.3,29.9,37.5,29.9z M37.5,39.9c-1.7,0-3-1.8-3-4
			s1.3-4,3-4s3,1.8,3,4S39.2,39.9,37.5,39.9z"/>
		<path class="st0" d="M39.1,24.9c0,0-0.1,0-0.1,0c-0.9,0-1.9,0.1-2.8,0.1c-0.8,0-1.7,0.1-2.5,0.1l-1.5,0c-2.5,0.1-5.2,0.1-7.8,0.1
			c-1.2,0-2.3,0-3.5-0.1C19.3,25.1,17.6,25,16,25c-2.3,0.1-4.2,0.8-5.7,2.2l0,0c-2.5,2.3-3.5,5.3-3.1,9.3c0.5,5.7,2.9,8.7,8,10.1
			c4.3,1.2,8.7,1.3,12.3,1.3l1.2,0c0.4,0,0.8,0,1.2,0c0.5,0,1,0,1.5,0c3.6-0.1,6.7-0.7,9.6-1.6c3.2-1.1,5.3-3.2,6.3-6.2
			c0.8-2.3,1-4.5,0.7-6.7C47.5,29.9,44.5,24.9,39.1,24.9z M45.5,39.4c-0.8,2.4-2.4,4-5,4.9c-2.7,0.9-5.7,1.4-9,1.5
			c-0.9,0-1.8,0-2.7,0l-1.2,0c-3.5,0-7.7-0.1-11.8-1.2c-4.3-1.2-6.1-3.5-6.6-8.4c-0.3-3.3,0.5-5.8,2.5-7.6c1.1-1,2.6-1.6,4.4-1.6
			c1.6,0,3.2,0,4.8,0.1c1.2,0,2.4,0.1,3.6,0.1c2.6,0,5.2,0,7.8-0.1l1.5,0c0.9,0,1.7-0.1,2.6-0.1c0.9,0,1.8-0.1,2.7-0.1
			c0,0,0.1,0,0.1,0c4.1,0,6.6,4,7,6.8C46.3,35.6,46.1,37.4,45.5,39.4z"/>
		<path class="st0" d="M51.9,18.6c-0.6-0.8-0.9-1.3-0.8-2.2c0.2-1.8-0.1-3.7-0.3-5.5l0-0.1c-0.3-2.4-1-4.7-1.9-6.8l-0.3-0.8
			l-1.5,0.3c-2.1,0.4-4.2,0.9-6.1,2c-1.3,0.7-2.6,1.5-3.8,2.3c-0.8,0.5-1.7,1-2.5,1.5c0,0-0.1,0-0.2,0l0,0c-4.5-0.8-9.1-0.8-13.8,0
			c-0.1,0-0.2,0-0.4-0.1c-0.5-0.3-1-0.6-1.5-1c-0.6-0.4-1.2-0.8-1.8-1.1c-2.9-1.7-6-3.3-9.8-3.8L6.6,3.3L6.2,4.1
			C6.1,4.3,6,4.4,6,4.6c-1.1,2.9-1.7,5.9-1.9,9.1c-0.1,1.1-0.1,2.2,0,3.4c0.1,0.4,0,0.5-0.1,0.6C2.6,19.3,1.6,21.1,1,23
			c-1.1,3.2-1.3,6.8-0.6,11.3c0.5,3.7,1.5,6.5,3,8.9c3.2,5,8.1,7.8,14.7,8.4c3.3,0.3,6.6,0.3,9.8,0.3c0.7,0,1.4,0,2.1,0
			c0.9,0,1.8,0,2.7,0c4.2,0,7.5-0.5,10.5-1.7c5.4-2.1,9-6,10.7-11.7c0.9-3.1,1.4-6.5,1.2-9.9C55,24.7,53.9,21.3,51.9,18.6z
			 M51.9,37.9c-1.5,5.1-4.6,8.5-9.5,10.4c-2.8,1.1-5.9,1.6-9.8,1.6c-0.9,0-1.8,0-2.7,0c-3.9,0-7.9,0-11.7-0.3
			c-6-0.5-10.3-3-13.1-7.5c-1.4-2.1-2.2-4.6-2.7-8.1c-0.6-4.2-0.5-7.4,0.5-10.4c0.6-1.7,1.4-3.3,2.6-4.7C6,18.2,6.2,17.6,6,16.7
			c-0.1-0.9-0.1-2,0-3.1c0.2-2.8,0.8-5.6,1.7-8.2C10.8,6,13.5,7.4,16,8.9c0.6,0.3,1.1,0.7,1.7,1.1c0.5,0.3,1.1,0.7,1.6,1
			c0.5,0.3,1.2,0.5,1.7,0.4c4.5-0.7,8.9-0.7,13.1,0c0.5,0.1,1.1,0,1.5-0.3c0.8-0.5,1.7-1,2.5-1.5C39.5,8.7,40.7,8,42,7.2
			c1.6-0.9,3.4-1.3,5.4-1.7c0.7,1.7,1.1,3.6,1.4,5.5l0,0.1c0.2,1.7,0.5,3.4,0.3,5c-0.2,1.6,0.5,2.6,1.2,3.5c1.8,2.5,2.7,5.4,2.8,8.9
			C53.2,31.8,52.8,35,51.9,37.9z"/>
	</g>
</g>
</svg>
