<?xml version="1.0" encoding="utf-8"?>
<!-- Generator: Adobe Illustrator 23.0.1, SVG Export Plug-In . SVG Version: 6.00 Build 0)  -->
<svg version="1.1" id="Layer_1" xmlns="http://www.w3.org/2000/svg" xmlns:xlink="http://www.w3.org/1999/xlink" x="0px" y="0px"
	 viewBox="0 0 304.1 301.6" style="enable-background:new 0 0 304.1 301.6;" xml:space="preserve">
<g>
	<g>
		<path d="M295.9,223.5l-48-47.8c-10.9-10.9-28.6-10.9-39.5,0c0,0,0,0,0,0L181,203.2c-2.1,2.1-5.4,2.4-7.8,0.7
			c-15-10.5-29.1-22.3-42.1-35.3c-11.6-11.6-22.3-24-31.9-37.3c-1.7-2.4-1.5-5.7,0.6-7.8L128,95.3c10.9-10.9,10.9-28.5,0-39.4
			l-48-48C69-2.6,51.6-2.6,40.5,7.9L25.3,23.1C2.4,45.8-5.8,79.5,4.2,110.2c7.4,22.4,17.9,43.8,31.2,63.3c12,17.9,25.7,34.6,41,49.8
			c16.6,16.7,35,31.6,54.9,44.3c21.8,14.2,45.8,24.9,71,31.6c6.5,1.6,13.1,2.4,19.8,2.4c22.9-0.1,44.8-9.3,60.8-25.6l13.1-13.1
			C306.8,252,306.8,234.4,295.9,223.5z M283.8,251.3C283.8,251.3,283.8,251.3,283.8,251.3l0.1-0.2l-13.1,13.1
			c-16.8,17-41.2,24-64.4,18.4c-23.4-6.3-45.6-16.2-65.9-29.5c-18.8-12-36.2-26.1-52-41.9C74.1,196.7,61.1,181,49.7,164
			c-12.4-18.2-22.2-38.1-29.2-59.1c-8-24.6-1.4-51.6,17.1-69.7L52.8,20c4.2-4.2,11.1-4.3,15.3,0c0,0,0,0,0,0l48,48
			c4.2,4.2,4.3,11.1,0,15.3c0,0,0,0,0,0L88,111.5c-8.1,8-9.1,20.7-2.4,29.9c10.2,14,21.5,27.1,33.7,39.3
			c13.7,13.7,28.5,26.2,44.4,37.3c9.2,6.4,21.6,5.3,29.5-2.6l27.2-27.6c4.2-4.2,11.1-4.3,15.3,0c0,0,0,0,0,0l48,48.1
			C288.1,240.2,288.1,247,283.8,251.3z"/>
	</g>
</g>
</svg>
