<?xml version="1.0" encoding="utf-8"?>
<!-- Generator: Adobe Illustrator 23.0.1, SVG Export Plug-In . SVG Version: 6.00 Build 0)  -->
<svg version="1.1" id="Слой_1" xmlns="http://www.w3.org/2000/svg" xmlns:xlink="http://www.w3.org/1999/xlink" x="0px" y="0px"
	 viewBox="0 0 612 612" style="enable-background:new 0 0 612 612;" xml:space="preserve">
<g>
	<g>
		<g transform="translate(0.000000,511.000000) scale(0.100000,-0.100000)">
			<path d="M2911.8,4397.1c-361.8-36-592.6-170.7-706.1-410.7c-66.5-139.3-93.2-333.2-82.1-586.1l6.5-140.3l-24.9-28.6
				c-42.5-50.8-55.4-117.2-48.9-258.4c8.3-191,40.6-353.5,83.1-416.3c11.1-17.5,42.5-43.4,68.3-59.1c45.2-26.8,47.1-29.5,53.5-76.6
				c28.6-227,189.2-495.6,382.1-637.8c72-53.5,192.9-112.6,268.6-131c83.1-20.3,240.9-16.6,323,9.2
				c245.5,75.7,456.9,283.3,567.6,557.5c27.7,69.2,60,193.8,60,234.4c0,10.1,17.5,26.8,46.1,42.4c84,46.1,112.6,115.4,143,341.5
				c26.8,204.9,14.8,331.3-36.9,392.3l-23.1,27.7v211.3c0,234.4-11.1,309.2-61.8,400.6c-32.3,59.1-108,134.7-176.3,175.3
				c-44.3,25.8-57.2,39.7-79.4,84.9c-53.5,110.7-173.5,196.6-332.3,237.2C3224.7,4396.2,3036.4,4410.1,2911.8,4397.1z
				 M2814.9,3751.1l129.2-62.8h101.5h101.5l129.2,62.8c138.4,66.5,183.7,75.7,254.7,50.8c84.9-28.6,166.1-121.8,218.7-252.9
				c24.9-63.7,24.9-63.7,24.9-291.6c-0.9-126.4,1.8-228.9,4.6-228.9s19.4,30.5,36.9,67.4c26.8,55.4,36,67.4,57.2,69.2
				c18.5,1.9,28.6-3.7,41.5-23.1c13.8-21.2,16.6-43.4,15.7-136.6c-1-119-24-290.7-48-348.9c-11.1-29.5-23.1-40.6-62.8-58.1
				c-62.8-27.7-77.5-50.8-87.7-139.4c-26.8-219.7-171.7-457.8-357.2-586.1c-220.6-152.3-455-142.1-671,30.4
				c-120.8,95-238,265.8-289.7,420.9c-10.2,31.4-23.1,90.4-27.7,131c-4.6,41.5-14.8,85.8-23.1,97.8c-8.3,12.9-37.8,33.2-64.6,45.2
				c-39.7,17.5-51.7,28.6-62.8,58.1c-24,58.1-47.1,229.8-48,348.9c-0.9,93.2,1.8,115.4,15.7,136.6c12.9,19.4,23.1,24.9,41.5,23.1
				c21.2-1.8,30.5-13.8,57.2-69.2c17.5-36.9,35.1-67.4,38.8-67.4c3.7,0,3.7,102.4,0.9,228.9c-5.5,245.5,0,295.3,44.3,381.2
				c28.6,57.2,99.7,128.3,151.3,152.3C2620.1,3829.5,2664.4,3823.1,2814.9,3751.1z"/>
			<path d="M2256.5,1780.5c-160.6-100.6-343.3-169.8-618.4-233.5c-220.6-52.6-266.7-69.2-308.3-115.4
				c-91.4-101.6-170.7-356.3-230.7-747.6l-24-152.3l44.3-44.3c161.5-166.1,456-375.6,696-496.6
				c1039.2-521.5,2310.2-334.1,3148.2,463.3l81.2,77.5l-23.1,144.9c-65.5,408-140.3,652.6-230.7,753.2
				c-43.4,48-87.7,64.6-310.1,117.2c-276,64.6-443,127.4-611,228.9c-74.7,46.1-112.6,53.5-125.5,27.7c-4.6-9.2-9.2-43.4-10.2-76.6
				c-4.6-146.8-110.7-513.2-249.2-858.4c-59.1-146.7-99.7-228-105.2-212.3c-2.8,7.4-36.9,117.2-76.6,243.6
				c-38.8,127.4-76.6,244.6-84,261.2c-6.5,17.5-10.2,36-6.5,41.5s27.7,39.7,54.5,76.6c25.8,36.9,52.6,79.4,59.1,95
				c17.5,41.5,5.5,88.6-32.3,131.1c-46.1,50.8-75.7,54.4-153.2,19.4c-34.2-15.7-71-28.6-82.1-28.6c-10.1,0-47.1,12.9-82.1,27.7
				c-35.1,15.7-72,27.7-82.1,27.7c-11.1,0-37.8-16.6-60.9-37.8c-71.1-65.5-67.4-124.6,18.5-237.2c27.7-36.9,50.8-74.8,50.8-84
				c0-9.2-8.3-40.6-18.5-71.1c-11.1-29.5-46.1-144-79.4-252.9c-33.2-108.9-62.8-204.9-64.6-212.3c-6.5-17.5-18.5,3.7-78.4,145.8
				c-144,335-271.3,761.5-279.6,933.1c-0.9,34.1-5.5,67.4-9.2,72.9C2359.8,1828.5,2316.5,1818.3,2256.5,1780.5z"/>
		</g>
	</g>
	<g>
		<g id="_x37__43_">
			<path d="M306,0C137,0,0,137,0,306s137,306,306,306s306-137,306-306S475,0,306,0z M306,573.8c-147.9,0-267.8-119.9-267.8-267.7
				S158.1,38.3,306,38.3s267.8,119.9,267.8,267.8S453.9,573.8,306,573.8z"/>
		</g>
	</g>
</g>
</svg>
