<svg id="Capa_1" data-name="Capa 1" xmlns="http://www.w3.org/2000/svg" viewBox="0 0 722 706.16"><title>printer 2</title><rect x="281" y="489.08" width="160" height="16"/><rect x="281" y="521.08" width="160" height="16"/><path d="M561,273.08H489v-152a8,8,0,0,0-8-8H289a3.56,3.56,0,0,0-.47.1,7.6,7.6,0,0,0-2.12.42,6,6,0,0,0-.71.25,7.88,7.88,0,0,0-2.4,1.6l-48,48a8.18,8.18,0,0,0-1.6,2.34c-.11.25-.17.5-.26.75a7.69,7.69,0,0,0-.41,2.06c0,.18-.1.33-.1.5v104H161a40.05,40.05,0,0,0-40,40v128a40.05,40.05,0,0,0,40,40h72v104a8,8,0,0,0,8,8H481a8,8,0,0,0,8-8v-104h72a40.05,40.05,0,0,0,40-40v-128A40.05,40.05,0,0,0,561,273.08ZM281,140.39v20.69H260.31Zm-32,36.69h40a8,8,0,0,0,8-8v-40H473v144H249Zm224,400H249v-144H473Zm112-136a24,24,0,0,1-24,24H489v-32h24a8,8,0,0,0,0-16H209a8,8,0,1,0,0,16h24v32H161a24,24,0,0,1-24-24v-128a24,24,0,0,1,24-24H561a24,24,0,0,1,24,24Z"/><rect x="521" y="281.08" width="16" height="16"/><rect x="553" y="281.08" width="16" height="16"/><rect x="281" y="425.08" width="160" height="16"/><rect x="281" y="457.08" width="160" height="16"/><rect x="489" y="281.08" width="16" height="16"/><path d="M361,0C161.64,0,0,158.07,0,353.08,0,564.82,190.56,733,413.07,702.59,571.22,681,696.25,558.69,718.35,404,749.45,186.38,577.49,0,361,0Zm72.34,654.17C202.86,704.18,2,507.75,53.16,282.32,79.19,167.57,171.33,77.45,288.66,52,519.14,2,720,198.41,668.84,423.84,642.81,538.59,550.67,628.71,433.34,654.17Z"/></svg>