<?xml version="1.0" encoding="iso-8859-1"?>
<!-- Generator: Adobe Illustrator 19.0.0, SVG Export Plug-In . SVG Version: 6.00 Build 0)  -->
<svg version="1.1" id="Capa_1" xmlns="http://www.w3.org/2000/svg" xmlns:xlink="http://www.w3.org/1999/xlink" x="0px" y="0px"
	 viewBox="0 0 480 480" style="enable-background:new 0 0 480 480;" xml:space="preserve">
<g>
	<g>
		<rect x="160" y="400" width="160" height="16"/>
	</g>
</g>
<g>
	<g>
		<rect x="160" y="432" width="160" height="16"/>
	</g>
</g>
<g>
	<g>
		<path d="M440,160h-72V8c0-4.418-3.582-8-8-8H168c-0.159,0.023-0.316,0.056-0.472,0.096c-0.723,0.041-1.437,0.183-2.12,0.424
			c-0.239,0.071-0.474,0.153-0.704,0.248c-0.892,0.38-1.706,0.923-2.4,1.6l-48,48c-0.669,0.68-1.211,1.474-1.6,2.344
			c-0.112,0.248-0.176,0.496-0.264,0.752c-0.231,0.663-0.368,1.355-0.408,2.056c0,0.176-0.104,0.328-0.104,0.504V160H40
			c-22.08,0.026-39.974,17.92-40,40v128c0.026,22.08,17.92,39.974,40,40h72v104c0,4.418,3.582,8,8,8h240c4.418,0,8-3.582,8-8V368h72
			c22.08-0.026,39.974-17.92,40-40V200C479.974,177.92,462.08,160.026,440,160z M160,27.312V48h-20.688L160,27.312z M128,64h40
			c4.418,0,8-3.582,8-8V16h176v144H128V64z M352,464H128V320h224V464z M464,328c0,13.255-10.745,24-24,24h-72v-32h24
			c4.418,0,8-3.582,8-8s-3.582-8-8-8H88c-4.418,0-8,3.582-8,8s3.582,8,8,8h24v32H40c-13.255,0-24-10.745-24-24V200
			c0-13.255,10.745-24,24-24h400c13.255,0,24,10.745,24,24V328z"/>
	</g>
</g>
<g>
	<g>
		<rect x="400" y="192" width="16" height="16"/>
	</g>
</g>
<g>
	<g>
		<rect x="432" y="192" width="16" height="16"/>
	</g>
</g>
<g>
	<g>
		<rect x="160" y="336" width="160" height="16"/>
	</g>
</g>
<g>
	<g>
		<rect x="160" y="368" width="160" height="16"/>
	</g>
</g>
<g>
	<g>
		<rect x="368" y="192" width="16" height="16"/>
	</g>
</g>
<g>
</g>
<g>
</g>
<g>
</g>
<g>
</g>
<g>
</g>
<g>
</g>
<g>
</g>
<g>
</g>
<g>
</g>
<g>
</g>
<g>
</g>
<g>
</g>
<g>
</g>
<g>
</g>
<g>
</g>
</svg>
