<?xml version="1.0" encoding="utf-8"?>
<!-- Svg Vector Icons : http://www.onlinewebfonts.com/icon -->
<!DOCTYPE svg PUBLIC "-//W3C//DTD SVG 1.1//EN" "http://www.w3.org/Graphics/SVG/1.1/DTD/svg11.dtd">
<svg version="1.1" xmlns="http://www.w3.org/2000/svg" xmlns:xlink="http://www.w3.org/1999/xlink" x="0px" y="0px" viewBox="0 0 1000 1000" enable-background="new 0 0 1000 1000" xml:space="preserve">
<metadata> Svg Vector Icons : http://www.onlinewebfonts.com/icon </metadata>
<g><g transform="translate(0.000000,511.000000) scale(0.100000,-0.100000)"><path d="M4691.4,4999.9c-753.8-75-1234.5-355.7-1471-855.7c-138.5-290.3-194.2-694.1-171.1-1221l13.5-292.3l-51.9-59.6c-88.5-105.8-115.4-244.2-101.9-538.4c17.3-398,84.6-736.5,173.1-867.2c23.1-36.5,88.5-90.4,142.3-123.1c94.2-55.8,98.1-61.5,111.5-159.6c59.6-473,394.2-1032.6,796.1-1328.7c150-111.5,401.9-234.6,559.6-273c173.1-42.3,501.9-34.6,673,19.2c511.5,157.7,951.8,590.3,1182.6,1161.4c57.7,144.2,125,403.8,125,488.4c0,21.1,36.5,55.8,96.1,88.4c175,96.1,234.6,240.4,298,711.5c55.8,426.9,30.8,690.3-76.9,817.2l-48.1,57.7v440.3c0,488.4-23.1,644.2-128.8,834.5c-67.3,123.1-225,280.7-367.2,365.3c-92.3,53.8-119.2,82.7-165.4,176.9c-111.5,230.7-361.5,409.6-692.2,494.2C5343.2,4998,4951,5026.8,4691.4,4999.9z M4489.5,3653.9l269.2-130.8h211.5h211.5l269.2,130.8c288.4,138.5,382.7,157.7,530.7,105.8c176.9-59.6,346.1-253.8,455.7-526.9c51.9-132.7,51.9-132.7,51.9-607.6c-1.9-263.4,3.8-476.9,9.6-476.9s40.4,63.5,76.9,140.4c55.8,115.4,75,140.4,119.2,144.2c38.5,3.9,59.6-7.7,86.5-48.1c28.8-44.2,34.6-90.4,32.7-284.6c-2-248-50-605.7-100-726.8c-23.1-61.5-48.1-84.6-130.8-121.1c-130.8-57.7-161.5-105.8-182.7-290.4c-55.8-457.7-357.7-953.7-744.2-1221c-459.6-317.3-948-296.1-1397.9,63.4C4006.8,2.3,3762.6,358.1,3655,681.1c-21.2,65.4-48.1,188.4-57.7,273c-9.6,86.5-30.8,178.8-48.1,203.8c-17.3,26.9-78.8,69.2-134.6,94.2c-82.7,36.5-107.7,59.6-130.8,121.1c-50,121.1-98.1,478.8-100,726.8c-1.9,194.2,3.8,240.4,32.7,284.6c26.9,40.4,48.1,51.9,86.5,48.1c44.2-3.8,63.5-28.8,119.2-144.2c36.5-76.9,73.1-140.4,80.8-140.4c7.7,0,7.7,213.4,1.9,476.9c-11.5,511.5,0,615.3,92.3,794.1c59.6,119.2,207.7,267.3,315.3,317.3C4083.7,3817.3,4176,3803.9,4489.5,3653.9z"/><path d="M3326.1-451.5c-334.6-209.6-715.3-353.8-1288.3-486.5c-459.6-109.6-555.7-144.2-642.2-240.4c-190.4-211.5-355.7-742.2-480.7-1557.5l-50-317.3l92.3-92.3c336.5-346.1,949.9-782.6,1449.9-1034.5c2165.2-1086.4,4813-696.1,6558.9,965.3l169.2,161.5l-48.1,301.9c-136.5,849.9-292.2,1359.5-480.7,1569.1c-90.4,100-182.7,134.6-646.1,244.2c-574.9,134.6-923,265.4-1272.9,476.9c-155.7,96.1-234.6,111.5-261.5,57.7c-9.6-19.2-19.2-90.4-21.2-159.6c-9.6-305.8-230.7-1069.1-519.2-1788.3c-123.1-305.7-207.7-474.9-219.2-442.3c-5.8,15.4-76.9,244.2-159.6,507.6c-80.8,265.4-159.6,509.6-175,544.2c-13.5,36.5-21.2,75-13.5,86.5c7.7,11.5,57.7,82.7,113.5,159.6c53.8,76.9,109.6,165.4,123.1,198c36.5,86.5,11.5,184.6-67.3,273.1c-96.1,105.8-157.7,113.4-319.2,40.4c-71.2-32.7-148-59.6-171.1-59.6c-21.1,0-98.1,26.9-171.1,57.7c-73.1,32.7-150,57.7-171.1,57.7c-23.1,0-78.8-34.6-126.9-78.8c-148.1-136.5-140.4-259.6,38.5-494.2c57.7-76.9,105.8-155.8,105.8-175c0-19.2-17.3-84.6-38.5-148.1c-23.1-61.5-96.1-300-165.4-526.9c-69.2-226.9-130.8-426.9-134.6-442.3c-13.5-36.5-38.5,7.7-163.4,303.8c-300,698-565.3,1586.4-582.6,1944c-1.9,71.1-11.5,140.4-19.2,151.9C3541.5-351.5,3451.1-372.6,3326.1-451.5z"/></g></g>
</svg>